<svg width="32" height="32" viewBox="0 0 32 32" xmlns="http://www.w3.org/2000/svg">
  <defs>
    <linearGradient id="gradient" x1="0%" y1="0%" x2="100%" y2="100%">
      <stop offset="0%" style="stop-color:#4a90e2;stop-opacity:1" />
      <stop offset="100%" style="stop-color:#357abd;stop-opacity:1" />
    </linearGradient>
  </defs>
  
  <!-- DNA双螺旋结构 -->
  <g fill="url(#gradient)" stroke="url(#gradient)" stroke-width="2">
    <!-- 左侧螺旋 -->
    <path d="M8 4 Q12 8 8 12 Q12 16 8 20 Q12 24 8 28" fill="none"/>
    <!-- 右侧螺旋 -->
    <path d="M24 4 Q20 8 24 12 Q20 16 24 20 Q20 24 24 28" fill="none"/>
    
    <!-- 连接横杠 -->
    <line x1="8" y1="6" x2="24" y2="6" stroke-width="1.5"/>
    <line x1="8" y1="10" x2="24" y2="10" stroke-width="1.5"/>
    <line x1="8" y1="14" x2="24" y2="14" stroke-width="1.5"/>
    <line x1="8" y1="18" x2="24" y2="18" stroke-width="1.5"/>
    <line x1="8" y1="22" x2="24" y2="22" stroke-width="1.5"/>
    <line x1="8" y1="26" x2="24" y2="26" stroke-width="1.5"/>
  </g>
  
  <!-- 顶部和底部的原子点 -->
  <circle cx="8" cy="4" r="2" fill="url(#gradient)"/>
  <circle cx="24" cy="4" r="2" fill="url(#gradient)"/>
  <circle cx="8" cy="28" r="2" fill="url(#gradient)"/>
  <circle cx="24" cy="28" r="2" fill="url(#gradient)"/>
</svg>